<?xml version="1.0" encoding="UTF-8" standalone="no"?>
<svg
   xmlns:dc="http://purl.org/dc/elements/1.1/"
   xmlns:cc="http://creativecommons.org/ns#"
   xmlns:rdf="http://www.w3.org/1999/02/22-rdf-syntax-ns#"
   xmlns:svg="http://www.w3.org/2000/svg"
   xmlns="http://www.w3.org/2000/svg"
   xmlns:sodipodi="http://sodipodi.sourceforge.net/DTD/sodipodi-0.dtd"
   xmlns:inkscape="http://www.inkscape.org/namespaces/inkscape"
   width="64"
   height="64"
   version="1"
   id="svg16"
   sodipodi:docname="eta-calibrator.svg"
   inkscape:version="0.92.1 r15371">
  <metadata
     id="metadata22">
    <rdf:RDF>
      <cc:Work
         rdf:about="">
        <dc:format>image/svg+xml</dc:format>
        <dc:type
           rdf:resource="http://purl.org/dc/dcmitype/StillImage" />
        <dc:title></dc:title>
      </cc:Work>
    </rdf:RDF>
  </metadata>
  <defs
     id="defs20" />
  <sodipodi:namedview
     pagecolor="#ffffff"
     bordercolor="#666666"
     borderopacity="1"
     objecttolerance="10"
     gridtolerance="10"
     guidetolerance="10"
     inkscape:pageopacity="0"
     inkscape:pageshadow="2"
     inkscape:window-width="1920"
     inkscape:window-height="1140"
     id="namedview18"
     showgrid="false"
     inkscape:zoom="10.429825"
     inkscape:cx="26.565057"
     inkscape:cy="9.111288"
     inkscape:window-x="1920"
     inkscape:window-y="0"
     inkscape:window-maximized="1"
     inkscape:current-layer="svg16" />
  <path
     inkscape:connector-curvature="0"
     style="opacity:0.2;stroke-width:1.03000283"
     d="m 7.0687525,9.652692 c 0,0 -2.8840056,0 -2.8840056,2.83251 v 39.655143 c 0,1.56921 1.2862665,2.83251 2.8840056,2.83251 H 58.980853 c 1.597739,0 2.884006,-1.2633 2.884006,-2.83251 V 12.485202 c 0,-1.56921 -1.286267,-2.83251 -2.884006,-2.83251 z"
     id="path2" />
  <path
     inkscape:connector-curvature="0"
     style="fill:#ebebeb;fill-opacity:1;stroke-width:1.03000283"
     d="m 7.0687525,8.6218736 c 0,0 -2.8840056,0 -2.8840056,2.8325104 v 39.655142 c 0,1.569211 1.2862665,2.83251 2.8840056,2.83251 H 58.980853 c 1.597739,0 2.884006,-1.263299 2.884006,-2.83251 V 11.454384 c 0,-1.5692109 -1.286267,-2.8325104 -2.884006,-2.8325104 z"
     id="path4" />
  <ellipse
     style="opacity:0.2;stroke-width:1.03000283"
     cx="17.721216"
     cy="28.205151"
     id="circle6"
     rx="9.2700176"
     ry="9.2700329" />
  <ellipse
     style="opacity:0.2;fill:#041218;stroke-width:1.03000283"
     cx="17.721216"
     cy="28.205151"
     id="circle8"
     rx="6.1800122"
     ry="6.1800222" />
  <path
     style="opacity:0.2;stroke-width:1.03000283"
     d="m 17.677218,27.175962 c -3.091413,0 -3.092546,2.059807 -3.099434,4.120014 -0.02153,1.272939 -0.01586,3.930151 0.008,7.849755 0.03834,6.265667 0.02655,8.232099 -0.04831,8.501554 C 12.40167,47.422166 9.1711632,46.559099 7.7257779,45.41536 6.7810827,44.665921 5.8436738,43.978896 5.6447268,43.890472 4.8153939,43.521844 3.6386949,43.753976 2.963918,44.421567 2.4973332,44.88318 2.3247399,45.294699 2.2836531,46.034971 c -0.031394,0.565703 -0.01236,0.699504 0.1610306,1.074263 0.109242,0.236091 0.3072969,0.553013 0.438752,0.704104 0.1314488,0.151102 1.9299518,2.483646 3.9970628,5.18623 3.8282105,5.005076 7.6369315,6.861209 8.2930195,7.047996 0.401124,0.114392 21.091446,0.118038 21.506858,0.0041 0.188614,-0.05179 0.461254,-0.225396 0.656114,-0.418439 0.273061,-0.270514 0.375573,-0.468325 0.587686,-1.122542 0.607289,-1.87308 1.213,-4.72187 1.384683,-6.304749 0.07467,-1.839199 0.03506,-1.909155 0,-3.399818 -6.61e-4,-0.0281 -0.007,-0.05263 -0.008,-0.08046 0.0029,-1.324708 0.01112,-2.444413 0,-3.009543 0.0062,-2.060203 0.01092,-4.120015 -3.075283,-4.120015 -2.78453,0 -3.043452,1.68754 -3.075285,3.528569 -0.0045,0.04952 -0.01936,0.09913 -0.02019,0.148876 0.0011,-0.497945 0.006,-1.313708 0,-1.617427 0.0062,-2.060203 0.0068,-4.120015 -3.079311,-4.120015 -2.766083,0 -3.040389,1.665751 -3.075281,3.492356 -0.008,0.0043 -0.01607,0.0074 -0.02416,0.01215 -4.7e-5,-0.01071 -0.0035,-0.110685 -0.0041,-0.132768 2.45e-4,-0.370395 0.0047,-1.065345 0,-1.311646 0.0062,-2.060203 0.0068,-4.120015 -3.07931,-4.120015 -2.345436,0 -2.908658,1.192133 -3.047105,2.667549 -0.0035,7.52e-4 -0.05191,0.01195 -0.05232,0.01215 -0.04398,0.01586 -0.008,-2.503062 -0.008,-5.214393 0,-1.857233 0.01339,-2.960744 0,-3.645247 0.0062,-2.060203 0.008,-4.120015 -3.083335,-4.120015 z"
     id="path10"
     inkscape:connector-curvature="0" />
  <path
     style="fill:#ff6c00;fill-opacity:1;stroke-width:1.03000283"
     d="m 17.677218,26.145143 c -3.091413,0 -3.092546,2.059808 -3.099434,4.120015 -0.02153,1.272938 -0.01586,3.93015 0.008,7.849755 0.03834,6.265668 0.02655,8.232099 -0.04831,8.501554 C 12.40167,46.391347 9.1711632,45.52828 7.7257779,44.384541 6.7810827,43.635103 5.8436738,42.948078 5.6447268,42.859654 4.8153939,42.491026 3.6386949,42.723158 2.963918,43.390749 c -0.4665848,0.461612 -0.6391781,0.873132 -0.6802649,1.613404 -0.031394,0.565702 -0.01236,0.699504 0.1610306,1.074262 0.109242,0.236092 0.3072969,0.553014 0.438752,0.704105 0.1314488,0.151101 1.9299518,2.483646 3.9970628,5.186229 3.8282105,5.005077 7.6369315,6.861209 8.2930195,7.047996 0.401124,0.114392 21.091446,0.118039 21.506858,0.0041 0.188614,-0.05179 0.461254,-0.225396 0.656114,-0.418439 0.273061,-0.270514 0.375573,-0.468324 0.587686,-1.122541 0.607289,-1.87308 1.213,-4.721871 1.384683,-6.30475 0.07467,-1.839199 0.03506,-1.909155 0,-3.399817 -6.61e-4,-0.0281 -0.007,-0.05263 -0.008,-0.08046 0.0029,-1.324708 0.01112,-2.444413 0,-3.009543 0.0062,-2.060202 0.01092,-4.120015 -3.075283,-4.120015 -2.78453,0 -3.043452,1.687539 -3.075285,3.528568 -0.0045,0.04952 -0.01936,0.09913 -0.02019,0.148877 0.0011,-0.497945 0.006,-1.313708 0,-1.617427 0.0062,-2.060203 0.0068,-4.120015 -3.079311,-4.120015 -2.766083,0 -3.040389,1.665751 -3.075281,3.492355 -0.008,0.0043 -0.01607,0.0074 -0.02416,0.01215 -4.7e-5,-0.01071 -0.0035,-0.110684 -0.0041,-0.132767 2.45e-4,-0.370396 0.0047,-1.065345 0,-1.311646 0.0062,-2.060202 0.0068,-4.120015 -3.07931,-4.120015 -2.345436,0 -2.908658,1.192133 -3.047105,2.667549 -0.0035,7.52e-4 -0.05191,0.01195 -0.05232,0.01215 -0.04398,0.01586 -0.008,-2.503062 -0.008,-5.214394 0,-1.857232 0.01339,-2.960743 0,-3.645247 0.0062,-2.060203 0.008,-4.120014 -3.083335,-4.120014 z"
     id="path12"
     inkscape:connector-curvature="0" />
  <path
     inkscape:connector-curvature="0"
     style="opacity:0.1;fill:#ffffff;stroke-width:1.03000283"
     d="m 7.0695571,8.6218746 c 0,0 -2.8848102,0 -2.8848102,2.8325104 v 1.030004 c 0,-2.8325117 2.8848102,-2.8325107 2.8848102,-2.8325107 H 58.980049 c 1.597739,0 2.88481,1.2632987 2.88481,2.8325107 v -1.030004 c 0,-1.5692108 -1.287071,-2.8325104 -2.88481,-2.8325104 z"
     id="path14" />
  <rect
     style="opacity:0.5;stroke-width:0.80928797"
     width="2.427866"
     height="17.804321"
     x="15.227858"
     y="-61.999996"
     id="rect6"
     transform="rotate(90)" />
  <rect
     style="opacity:0.5;stroke-width:0.80928797"
     width="2.427866"
     height="8.9021606"
     x="20.08359"
     y="-61.999996"
     id="rect8"
     transform="rotate(90)" />
  <rect
     style="opacity:0.5;stroke-width:0.80928797"
     width="2.427866"
     height="13.757884"
     x="39.506516"
     y="-61.999996"
     id="rect10"
     transform="rotate(90)" />
  <rect
     style="opacity:0.5;stroke-width:0.80928797"
     width="2.427866"
     height="8.9021606"
     x="24.939322"
     y="-61.999996"
     id="rect14"
     transform="rotate(90)" />
  <rect
     style="opacity:0.5;stroke-width:0.80928797"
     width="2.427866"
     height="8.9021606"
     x="29.795053"
     y="-61.999996"
     id="rect16"
     transform="rotate(90)" />
  <rect
     style="opacity:0.5;stroke-width:0.80928797"
     width="2.427866"
     height="8.9021606"
     x="34.650787"
     y="-61.999996"
     id="rect18"
     transform="rotate(90)" />
  <rect
     style="opacity:0.5;stroke-width:0.80928797"
     width="2.427866"
     height="8.9021606"
     x="44.362247"
     y="-61.999996"
     id="rect20"
     transform="rotate(90)" />
  <rect
     style="opacity:0.5;stroke-width:0.80928797"
     width="2.427866"
     height="8.9021606"
     x="49.217979"
     y="-61.999996"
     id="rect22"
     transform="rotate(90)" />
  <path
     style="opacity:0.2;fill:#ffffff;stroke-width:0.80928797"
     d="m 61.999996,11.02019 c 0,-1.2553687 -1.015149,-2.2666407 -2.27612,-2.2666407 h -0.809287 c 1.260971,0 2.27612,1.011272 2.27612,2.2666407 v 40.786882 c 0,1.255368 -1.015149,2.26664 -2.27612,2.26664 h 0.809287 c 1.260971,0 2.27612,-1.011272 2.27612,-2.26664 z"
     id="path24"
     inkscape:connector-curvature="0" />
</svg>
